name C:\Users\u0101727\Documents\MyRepositories\predictivesimulations\OpenSimModel\subject1\EMG\EMG_gait_64.mot
datacolumns 25
datarows 11
range 3.30800000 3.31800000
endheader
time	HamL_r	TA_r	PerL_r	GL_r	HamM_r	Sol_r	VL_r	VM_r	PerB_l	TA_l	PerL_l	GL_l	GM_l	Sol_l	VL_l	VM_l	AddL_l	RF_l	TFL_l	GluMed_l	HamL_l	HamM_l	GluMed_r	RF_r	
          3.30800000	          0.00366715	          0.00395217	          0.00388903	          0.00436688	          0.00307145	          0.01968842	          0.00516465	          0.00406323	          0.02033557	          0.01098088	          0.01464828	          0.01709692	          0.01994722	          0.07619410	          0.04522041	          0.04881236	          0.01580383	          0.02227969	          0.02501439	          0.02439523	          0.00974844	          0.00875208	          0.00890649	          0.00881643	
          3.30900000	          0.00367217	          0.00394840	          0.00391393	          0.00440762	          0.00308756	          0.01957144	          0.00515653	          0.00408120	          0.02079823	          0.01026882	          0.01465230	          0.01711527	          0.02017765	          0.07775901	          0.04496831	          0.04844211	          0.01557749	          0.02203087	          0.02463792	          0.02441344	          0.00968839	          0.00870330	          0.00907781	          0.00867891	
          3.31000000	          0.00367846	          0.00394483	          0.00393723	          0.00444726	          0.00310430	          0.01943409	          0.00514831	          0.00409811	          0.02127166	          0.00960190	          0.01465901	          0.01712882	          0.02040685	          0.07926752	          0.04467882	          0.04806264	          0.01535267	          0.02178699	          0.02427761	          0.02443066	          0.00962562	          0.00865218	          0.00925277	          0.00853964	
          3.31100000	          0.00368602	          0.00394160	          0.00395888	          0.00448571	          0.00312180	          0.01927736	          0.00514010	          0.00411404	          0.02175495	          0.00897890	          0.01466818	          0.01713722	          0.02063471	          0.08071561	          0.04435335	          0.04767324	          0.01512983	          0.02154876	          0.02393498	          0.02444745	          0.00956043	          0.00859894	          0.00943124	          0.00839931	
          3.31200000	          0.00369490	          0.00393884	          0.00397878	          0.00452291	          0.00314017	          0.01910247	          0.00513201	          0.00412909	          0.02224741	          0.00839852	          0.01467998	          0.01714019	          0.02086138	          0.08209984	          0.04399371	          0.04727308	          0.01490948	          0.02131675	          0.02361176	          0.02446408	          0.00949318	          0.00854383	          0.00961306	          0.00825855	
          3.31300000	          0.00370509	          0.00393667	          0.00399687	          0.00455875	          0.00315951	          0.01891083	          0.00512417	          0.00414336	          0.02274853	          0.00785944	          0.01469495	          0.01713768	          0.02108716	          0.08341736	          0.04360194	          0.04686088	          0.01469208	          0.02109136	          0.02330961	          0.02448064	          0.00942417	          0.00848706	          0.00979803	          0.00811796	
          3.31400000	          0.00371662	          0.00393518	          0.00401310	          0.00459316	          0.00317990	          0.01870394	          0.00511669	          0.00415692	          0.02325783	          0.00736026	          0.01471373	          0.01712991	          0.02131244	          0.08466613	          0.04318009	          0.04643492	          0.01447791	          0.02087279	          0.02302992	          0.02449711	          0.00935362	          0.00842880	          0.00998586	          0.00797818	
          3.31500000	          0.00372946	          0.00393444	          0.00402746	          0.00462600	          0.00320137	          0.01848318	          0.00510966	          0.00416982	          0.02377471	          0.00689955	          0.01473694	          0.01711726	          0.02153766	          0.08584492	          0.04273010	          0.04599328	          0.01426711	          0.02066109	          0.02277387	          0.02451347	          0.00928169	          0.00836918	          0.01017616	          0.00783982	
          3.31600000	          0.00374359	          0.00393449	          0.00403994	          0.00465715	          0.00322393	          0.01824986	          0.00510311	          0.00418210	          0.02429844	          0.00647588	          0.01476502	          0.01710015	          0.02176328	          0.08695282	          0.04225364	          0.04553432	          0.01405974	          0.02045620	          0.02254234	          0.02452963	          0.00920854	          0.00830833	          0.01036838	          0.00770344	
          3.31700000	          0.00375893	          0.00393537	          0.00405053	          0.00468643	          0.00324754	          0.01800538	          0.00509702	          0.00419377	          0.02482834	          0.00608781	          0.01479829	          0.01707898	          0.02198969	          0.08798882	          0.04175200	          0.04505699	          0.01385582	          0.02025800	          0.02233606	          0.02454532	          0.00913443	          0.00824637	          0.01056195	          0.00756951	
          3.31800000	          0.00377542	          0.00393716	          0.00405926	          0.00471367	          0.00327218	          0.01775128	          0.00509139	          0.00420483	          0.02536380	          0.00573388	          0.01483689	          0.01705410	          0.02221711	          0.08895156	          0.04122615	          0.04456101	          0.01365535	          0.02006640	          0.02215565	          0.02455995	          0.00905974	          0.00818344	          0.01075643	          0.00743844	
